Coordinates
nRows=116
nColumns=2
inDegrees=yes
endheader
time	ankle_angle_r	
3.36391	 18.794138	
3.43548	 18.819548	
3.50706	 18.844604	
3.57863	 18.784254	
3.6502	 18.783569	
3.72177	 18.829346	
3.79335	 18.814087	
3.86492	 18.868975	
3.93649	 18.777214	
4.00806	 18.857731	
4.07964	 18.853092	
4.15121	 18.804506	
4.22278	 18.822159	
4.29435	 18.837210	
4.36593	 18.844604	
4.4375	 18.799191	
4.50907	 18.806847	
4.58065	 18.844604	
4.65222	 18.814087	
4.72379	 18.829346	
4.79536	 18.798828	
4.86694	 18.823147	
4.93851	 18.859863	
5.01008	 18.789352	
5.08165	 18.814087	
5.15323	 18.804195	
5.2248	 18.849764	
5.29637	 18.824394	
5.36794	 18.783569	
5.43952	 18.829346	
5.51109	 18.783569	
5.58266	 18.836365	
5.65423	 18.772223	
5.72581	 18.772015	
5.79738	 18.805819	
5.86895	 18.802116	
5.94052	 18.807928	
6.0121	 18.758795	
6.08367	 18.816750	
6.15524	 18.839693	
6.22681	 18.783569	
6.29839	 18.814087	
6.36996	 18.814087	
6.44153	 18.844604	
6.5131	 18.783569	
6.58468	 18.784777	
6.65625	 18.829346	
6.72782	 18.813295	
6.7994	 18.814671	
6.87097	 18.813711	
6.94254	 18.844772	
7.01411	 18.859821	
7.08569	 18.799078	
7.15726	 18.814545	
7.22883	 18.783569	
7.3004	 18.858990	
7.37198	 18.798828	
7.44355	 18.768311	
7.51512	 18.801823	
7.58669	 18.812382	
7.65827	 18.810261	
7.72984	 18.781448	
7.80141	 18.842276	
7.87298	 18.844604	
7.94456	 18.789061	
8.01613	 18.820486	
8.0877	 18.789892	
8.15927	 18.844604	
8.23085	 18.805983	
8.30242	 18.768311	
8.37399	 18.829346	
8.44556	 18.807232	
8.51714	 18.844604	
8.58871	 18.768311	
8.66028	 18.804436	
8.73185	 18.829346	
8.80343	 18.783569	
8.875	 18.814087	
8.94657	 18.802773	
9.01815	 18.835211	
9.08972	 18.832308	
9.16129	 18.777288	
9.23286	 18.798828	
9.30444	 18.807388	
9.37601	 18.822439	
9.44758	 18.769342	
9.51915	 18.775633	
9.59073	 18.836876	
9.6623	 18.814087	
9.73387	 18.798828	
9.80544	 18.761206	
9.87702	 18.822449	
9.94859	 18.844604	
10.0202	 18.792347	
10.0917	 18.771023	
10.1633	 18.820152	
10.2349	 18.792971	
10.3065	 18.732143	
10.378	 18.718157	
10.4496	 18.788801	
10.5212	 18.773335	
10.5927	 18.824530	
10.6643	 18.809479	
10.7359	 18.822887	
10.8075	 18.859863	
10.879	 18.798828	
10.9506	 18.817863	
11.0222	 18.814087	
11.0937	 18.856503	
11.1653	 18.795675	
11.2369	 18.771255	
11.3085	 18.832083	
11.38	 18.854807	
11.4516	 18.870481	
11.5232	 18.798828	
11.5948	 18.907543	
